<svg xmlns="http://www.w3.org/2000/svg" xmlns:xlink="http://www.w3.org/1999/xlink" width="500" zoomAndPan="magnify" viewBox="0 0 375 374.999991" height="500" preserveAspectRatio="xMidYMid meet" version="1.0"><defs><g/><clipPath id="9492a47b64"><path d="M 49.378906 136.253906 L 119.878906 136.253906 L 119.878906 218.753906 L 49.378906 218.753906 Z M 49.378906 136.253906 " clip-rule="nonzero"/></clipPath></defs><g clip-path="url(#9492a47b64)"><path fill="#000000" d="M 101.824219 163.796875 L 97.140625 163.796875 L 99.925781 160.578125 C 100.566406 160.730469 101.226562 160.8125 101.917969 160.8125 C 106.574219 160.8125 110.375 157.035156 110.40625 152.382812 C 110.4375 147.699219 106.644531 143.871094 101.917969 143.851562 C 97.261719 143.851562 93.449219 147.628906 93.429688 152.28125 C 93.417969 153.480469 93.660156 154.667969 94.140625 155.753906 L 87.289062 163.796875 L 84.289062 163.796875 L 75.730469 153.226562 C 76.808594 151.488281 77.398438 149.476562 77.417969 147.417969 C 77.4375 144.449219 76.296875 141.65625 74.214844 139.554688 C 72.128906 137.441406 69.355469 136.273438 66.316406 136.253906 C 60.238281 136.253906 55.253906 141.199219 55.214844 147.285156 C 55.195312 150.25 56.332031 153.042969 58.417969 155.15625 C 60.5 157.269531 63.285156 158.4375 66.316406 158.457031 C 67.109375 158.457031 67.902344 158.375 68.664062 158.210938 L 73.167969 163.820312 L 67.425781 163.820312 C 59.300781 163.796875 49.398438 166.246094 49.398438 183.015625 L 49.398438 200.738281 C 49.398438 210.648438 57.511719 218.753906 67.433594 218.753906 L 101.824219 218.753906 C 111.738281 218.753906 119.859375 210.648438 119.859375 200.738281 L 119.859375 183.015625 C 119.859375 168.113281 109.949219 163.796875 101.824219 163.796875 Z M 103.636719 208.34375 L 65.625 208.34375 C 62.828125 208.34375 60.46875 205.988281 60.46875 203.195312 L 60.492188 183.015625 L 60.492188 179.9375 C 60.59375 177.226562 62.898438 174.96875 65.625 174.96875 L 103.636719 174.96875 C 106.429688 174.96875 108.789062 177.328125 108.789062 180.121094 L 108.769531 200.308594 L 108.789062 200.308594 L 108.789062 203.195312 C 108.789062 205.988281 106.429688 208.34375 103.636719 208.34375 Z M 103.636719 208.34375 " fill-opacity="1" fill-rule="nonzero"/></g><path fill="#fcc509" d="M 76.960938 197.628906 C 76.9375 194.359375 76.917969 188.996094 76.898438 185.726562 C 76.878906 182.457031 79.328125 181.105469 82.132812 182.71875 C 84.929688 184.34375 89.605469 186.996094 92.402344 188.621094 C 95.195312 190.246094 95.257812 192.917969 92.472656 194.570312 C 89.6875 196.226562 84.980469 198.929688 82.195312 200.574219 C 79.417969 202.230469 76.96875 200.898438 76.960938 197.628906 Z M 76.960938 197.628906 " fill-opacity="1" fill-rule="nonzero"/><g fill="#fcc509" fill-opacity="1"><g transform="translate(194.202004, 205.874986)"><g><path d="M 12.3125 0 L 3.375 0 L 3.375 -27.84375 L 12.3125 -27.84375 Z M 12.421875 -32.125 L 3.21875 -32.125 L 3.21875 -39.296875 L 12.421875 -39.296875 Z M 12.421875 -32.125 "/></g></g></g><g fill="#fcc509" fill-opacity="1"><g transform="translate(207.852009, 205.874986)"><g><path d="M 19.921875 -28.546875 C 22.097656 -28.546875 24.03125 -28.035156 25.71875 -27.015625 C 27.414062 -25.992188 28.75 -24.59375 29.71875 -22.8125 C 30.6875 -21.03125 31.171875 -18.992188 31.171875 -16.703125 L 31.171875 0 L 22.21875 0 L 22.21875 -14.828125 C 22.21875 -16.578125 21.796875 -17.96875 20.953125 -19 C 20.117188 -20.039062 18.9375 -20.5625 17.40625 -20.5625 C 15.90625 -20.5625 14.679688 -20.035156 13.734375 -18.984375 C 12.785156 -17.929688 12.3125 -16.546875 12.3125 -14.828125 L 12.3125 0 L 3.375 0 L 3.375 -27.84375 L 11.671875 -27.84375 L 11.671875 -25.171875 C 13.890625 -27.421875 16.640625 -28.546875 19.921875 -28.546875 Z M 19.921875 -28.546875 "/></g></g></g><g fill="#fcc509" fill-opacity="1"><g transform="translate(240.07733, 205.874986)"><g><path d="M 20.78125 -19.96875 L 14.40625 -19.96875 L 14.40625 -12.15625 C 14.40625 -10.832031 14.769531 -9.796875 15.5 -9.046875 C 16.226562 -8.296875 17.253906 -7.921875 18.578125 -7.921875 L 20.78125 -7.921875 L 20.78125 0 L 15.84375 0 C 12.53125 0 9.972656 -0.925781 8.171875 -2.78125 C 6.367188 -4.632812 5.46875 -7.207031 5.46875 -10.5 L 5.46875 -19.96875 L 0.90625 -19.96875 L 0.90625 -27.84375 L 5.46875 -27.84375 L 5.46875 -35.234375 L 14.40625 -35.234375 L 14.40625 -27.84375 L 20.78125 -27.84375 Z M 20.78125 -19.96875 "/></g></g></g><g fill="#fcc509" fill-opacity="1"><g transform="translate(261.007572, 205.874986)"><g><path d="M 16.5 -28.546875 C 19.132812 -28.546875 21.582031 -27.9375 23.84375 -26.71875 C 26.113281 -25.507812 27.9375 -23.804688 29.3125 -21.609375 C 30.6875 -19.410156 31.375 -16.921875 31.375 -14.140625 C 31.375 -13.316406 31.285156 -12.367188 31.109375 -11.296875 L 10.4375 -11.296875 C 10.800781 -9.617188 11.515625 -8.316406 12.578125 -7.390625 C 13.648438 -6.460938 14.988281 -6 16.59375 -6 C 17.882812 -6 18.96875 -6.226562 19.84375 -6.6875 C 20.71875 -7.15625 21.457031 -7.851562 22.0625 -8.78125 L 30.578125 -8.78125 C 29.535156 -5.957031 27.800781 -3.671875 25.375 -1.921875 C 22.945312 -0.171875 19.988281 0.703125 16.5 0.703125 C 13.8125 0.703125 11.328125 0.0976562 9.046875 -1.109375 C 6.765625 -2.328125 4.9375 -4.039062 3.5625 -6.25 C 2.1875 -8.46875 1.5 -11.023438 1.5 -13.921875 C 1.5 -16.816406 2.1875 -19.367188 3.5625 -21.578125 C 4.9375 -23.796875 6.765625 -25.507812 9.046875 -26.71875 C 11.328125 -27.9375 13.8125 -28.546875 16.5 -28.546875 Z M 16.5 -21.796875 C 15 -21.796875 13.71875 -21.375 12.65625 -20.53125 C 11.601562 -19.695312 10.882812 -18.476562 10.5 -16.875 L 22.59375 -16.875 C 22.3125 -18.332031 21.648438 -19.515625 20.609375 -20.421875 C 19.578125 -21.335938 18.207031 -21.796875 16.5 -21.796875 Z M 16.5 -21.796875 "/></g></g></g><g fill="#fcc509" fill-opacity="1"><g transform="translate(291.787553, 205.874986)"><g><path d="M 19.921875 -28.546875 C 22.097656 -28.546875 24.03125 -28.035156 25.71875 -27.015625 C 27.414062 -25.992188 28.75 -24.59375 29.71875 -22.8125 C 30.6875 -21.03125 31.171875 -18.992188 31.171875 -16.703125 L 31.171875 0 L 22.21875 0 L 22.21875 -14.828125 C 22.21875 -16.578125 21.796875 -17.96875 20.953125 -19 C 20.117188 -20.039062 18.9375 -20.5625 17.40625 -20.5625 C 15.90625 -20.5625 14.679688 -20.035156 13.734375 -18.984375 C 12.785156 -17.929688 12.3125 -16.546875 12.3125 -14.828125 L 12.3125 0 L 3.375 0 L 3.375 -27.84375 L 11.671875 -27.84375 L 11.671875 -25.171875 C 13.890625 -27.421875 16.640625 -28.546875 19.921875 -28.546875 Z M 19.921875 -28.546875 "/></g></g></g><g fill="#fcc509" fill-opacity="1"><g transform="translate(324.012877, 205.874986)"><g><path d="M 20.78125 -19.96875 L 14.40625 -19.96875 L 14.40625 -12.15625 C 14.40625 -10.832031 14.769531 -9.796875 15.5 -9.046875 C 16.226562 -8.296875 17.253906 -7.921875 18.578125 -7.921875 L 20.78125 -7.921875 L 20.78125 0 L 15.84375 0 C 12.53125 0 9.972656 -0.925781 8.171875 -2.78125 C 6.367188 -4.632812 5.46875 -7.207031 5.46875 -10.5 L 5.46875 -19.96875 L 0.90625 -19.96875 L 0.90625 -27.84375 L 5.46875 -27.84375 L 5.46875 -35.234375 L 14.40625 -35.234375 L 14.40625 -27.84375 L 20.78125 -27.84375 Z M 20.78125 -19.96875 "/></g></g></g><g fill="#000000" fill-opacity="1"><g transform="translate(133.555571, 205.874986)"><g><path d="M 17.03125 0 L 7.65625 0 L 13.21875 -29.015625 L 4.0625 -29.015625 L 5.671875 -37.484375 L 33.359375 -37.484375 L 31.75 -29.015625 L 22.59375 -29.015625 Z M 17.03125 0 "/></g></g></g><g fill="#000000" fill-opacity="1"><g transform="translate(161.337804, 205.874986)"><g><path d="M 14.453125 -10.234375 L 24.25 -27.84375 L 33.84375 -27.84375 L 16.8125 0 L 8.828125 0 L 2.515625 -27.84375 L 11.359375 -27.84375 Z M 14.453125 -10.234375 "/></g></g></g></svg>